<?xml version="1.0" standalone="no"?>
<!DOCTYPE svg PUBLIC "-//W3C//DTD SVG 20010904//EN"
 "http://www.w3.org/TR/2001/REC-SVG-20010904/DTD/svg10.dtd">
<svg version="1.0" xmlns="http://www.w3.org/2000/svg"
 width="716.000000pt" height="737.000000pt" viewBox="0 0 716.000000 737.000000"
 preserveAspectRatio="xMidYMid meet">

<g transform="translate(0.000000,737.000000) scale(0.100000,-0.100000)"
fill="#000000" stroke="none">
<path d="M0 5083 c0 -1628 3 -2284 11 -2276 7 7 28 5 72 -9 147 -46 321 -30
472 42 134 63 204 122 357 297 53 59 129 136 170 170 l74 63 -7 57 c-4 32 -8
68 -8 80 -1 21 -4 21 -163 20 -137 -1 -177 3 -253 21 -128 32 -256 97 -337
171 -106 97 -172 211 -123 211 7 0 39 -13 71 -29 98 -48 184 -65 324 -65 137
0 176 6 357 61 l121 37 6 56 c4 30 9 72 12 92 l6 37 -54 16 c-29 8 -95 20
-146 26 -246 27 -416 108 -563 267 -74 80 -118 150 -161 254 -37 91 -78 266
-78 336 0 44 3 52 19 52 10 0 27 -12 37 -27 62 -96 180 -184 315 -235 83 -32
86 -32 259 -32 157 0 185 2 275 26 110 29 215 47 288 51 l48 2 44 81 45 81
-83 53 c-98 63 -258 222 -306 303 -18 31 -47 96 -63 143 -47 135 -50 324 -6
324 7 0 28 -28 46 -63 94 -183 279 -322 541 -408 l101 -33 69 74 69 75 -19 26
c-10 14 -56 61 -102 105 -116 109 -173 184 -223 289 -57 120 -76 205 -76 340
0 123 17 212 61 335 31 84 91 203 116 229 25 26 40 -2 43 -79 8 -267 194 -508
490 -635 124 -53 284 -130 306 -148 18 -13 26 -11 87 19 36 18 79 38 94 44 20
8 25 14 20 28 -64 149 -88 258 -88 402 0 177 37 292 137 428 28 38 53 62 65
62 18 0 18 -7 13 -128 -9 -222 44 -382 191 -587 28 -38 51 -71 52 -72 0 -1 49
8 108 20 l107 22 0 31 c0 18 -9 76 -20 129 -87 424 92 771 509 982 l84 43
-1906 0 -1907 0 0 -2287z"/>
<path d="M3846 7356 c3 -8 -8 -36 -26 -61 -75 -108 -112 -234 -112 -380 0
-167 50 -314 173 -515 36 -58 77 -131 92 -162 26 -56 26 -56 84 -68 32 -6 77
-15 101 -21 24 -5 47 -7 52 -4 4 3 14 29 20 57 20 84 83 220 136 295 96 135
224 234 354 273 131 40 149 25 71 -57 -134 -140 -205 -337 -216 -594 l-4 -100
106 -50 c82 -38 109 -46 115 -37 5 7 35 67 67 133 32 66 84 152 114 191 108
138 259 235 435 280 123 32 305 35 448 8 127 -24 133 -44 27 -83 -195 -72
-341 -232 -411 -451 -28 -86 -40 -160 -52 -304 -6 -65 -15 -147 -22 -181 l-11
-63 73 -80 73 -80 76 57 c166 123 326 182 496 184 108 1 180 -13 264 -49 40
-18 52 -28 47 -40 -3 -8 -6 -18 -6 -20 0 -2 -15 -4 -33 -4 -52 0 -159 -35
-246 -80 -126 -65 -261 -192 -358 -335 l-20 -30 54 -103 55 -103 77 42 c230
128 313 153 491 154 100 0 142 -5 210 -23 157 -43 332 -153 458 -286 l62 -66
0 1385 0 1385 -1660 0 c-1443 0 -1659 -2 -1654 -14z"/>
<path d="M3880 4719 c-158 -86 -248 -247 -238 -423 9 -139 66 -246 178 -335
173 -137 437 -116 592 47 90 94 128 186 128 313 0 157 -89 314 -220 388 l-40
22 0 -39 c0 -59 -27 -126 -67 -166 -105 -105 -246 -18 -261 161 -2 35 -7 63
-11 63 -3 0 -31 -14 -61 -31z"/>
<path d="M6710 4574 c-150 -44 -253 -113 -386 -260 -49 -54 -125 -135 -169
-179 l-81 -81 11 -105 10 -104 95 3 c256 8 480 -74 626 -231 70 -74 114 -151
97 -168 -8 -8 -30 -2 -84 24 -184 87 -417 91 -664 10 -44 -14 -81 -26 -82 -27
-2 -2 -33 -192 -33 -205 0 -14 24 -20 153 -36 249 -32 410 -107 553 -258 138
-145 230 -359 250 -578 6 -60 5 -69 -11 -75 -13 -5 -23 1 -38 22 -49 71 -157
163 -239 204 -106 52 -169 69 -289 77 -107 7 -203 -5 -354 -42 -55 -14 -144
-30 -198 -37 l-97 -11 -49 -80 -49 -81 92 -62 c150 -103 249 -210 316 -344 59
-118 87 -259 72 -360 -10 -67 -33 -64 -72 8 -97 182 -273 317 -527 402 l-128
43 -65 -67 c-36 -37 -66 -72 -68 -77 -2 -5 54 -67 125 -137 170 -170 236 -272
280 -432 25 -91 25 -318 -1 -415 -39 -149 -138 -350 -172 -350 -17 0 -20 11
-25 85 -11 165 -70 299 -184 419 -102 107 -203 171 -399 252 -93 38 -174 80
-234 121 l-43 30 -80 -32 c-43 -18 -79 -35 -79 -39 0 -3 15 -44 33 -91 58
-148 72 -219 72 -375 0 -128 -3 -148 -29 -229 -29 -87 -100 -211 -145 -250
-19 -17 -24 -18 -36 -5 -11 11 -12 23 -5 54 34 146 -16 383 -118 550 -61 101
-164 240 -174 237 -6 -2 -46 -8 -89 -14 l-79 -11 1 -51 c0 -53 6 -95 33 -236
73 -386 -116 -730 -511 -930 l-98 -49 1908 -1 1907 0 0 2283 0 2282 -22 1
c-13 0 -50 8 -83 17 -92 26 -240 22 -345 -9z"/>
<path d="M2690 4443 c0 -128 -63 -213 -157 -213 -68 0 -126 64 -148 164 l-6
29 -45 -44 c-141 -137 -174 -352 -82 -533 27 -53 112 -142 166 -173 140 -82
324 -82 464 0 54 31 139 120 166 173 51 100 66 227 38 329 -40 149 -162 274
-313 320 -82 25 -83 24 -83 -52z"/>
<path d="M4830 3181 c-369 -242 -794 -377 -1296 -413 -189 -13 -409 -3 -628
28 -128 18 -357 75 -423 104 l-44 19 30 -37 c39 -48 202 -207 266 -259 189
-153 422 -262 660 -309 122 -24 411 -24 545 0 319 57 563 193 740 414 105 130
195 303 244 470 8 28 14 52 13 52 -1 0 -49 -31 -107 -69z"/>
<path d="M0 1390 l0 -1390 1666 0 c1438 0 1665 2 1655 14 -10 12 -5 24 23 64
106 146 142 357 96 551 -24 101 -79 219 -163 355 -34 56 -81 148 -104 206
l-42 105 -75 16 -75 16 -10 -31 c-6 -17 -22 -74 -36 -126 -82 -295 -281 -512
-530 -578 -57 -14 -67 -15 -75 -3 -6 11 6 30 42 70 65 71 113 145 147 230 50
121 63 194 70 391 4 102 6 185 6 186 0 0 -35 17 -78 37 l-77 36 -31 -42 c-17
-23 -60 -101 -94 -173 -103 -213 -216 -335 -390 -423 -129 -65 -214 -84 -390
-85 -142 -1 -264 13 -307 36 -33 16 -18 35 45 58 224 80 374 260 441 526 9 33
22 132 31 220 8 87 26 205 41 262 l25 102 -47 55 c-26 30 -51 55 -55 55 -4 0
-45 -30 -91 -67 -145 -115 -225 -160 -368 -205 -62 -19 -96 -23 -200 -23 -125
1 -167 8 -263 49 -58 25 -47 48 30 63 219 44 389 162 558 388 47 63 89 116 95
120 6 4 1 22 -14 48 -13 23 -33 58 -44 77 -14 27 -25 34 -43 32 -13 -1 -100
-41 -194 -87 -209 -105 -285 -127 -445 -127 -95 0 -131 5 -205 27 -169 49
-303 132 -442 272 l-83 83 0 -1390z"/>
</g>
</svg>
